<svg width="40" height="40" viewBox="0 0 40 40" fill="none" xmlns="http://www.w3.org/2000/svg">
<path d="M26.6166 23.3201C26.1432 26.2439 23.7413 28.0616 20.3475 28.0616C16.0637 28.0616 13.2963 24.9515 13.2963 20.1396C13.2963 15.5962 16.0218 12.7722 20.4105 12.7722C23.5135 12.7722 25.839 14.4681 26.3334 17.0926L26.3919 17.4007H32.2235L32.1665 16.9752C31.4054 11.223 26.7305 7.35889 20.5408 7.35889L20.352 7.35742C16.7919 7.35742 13.5255 8.65281 11.1536 11.0059C8.73981 13.4001 7.43624 16.6994 7.48419 20.2893C7.43624 23.992 8.76827 27.3779 11.2331 29.822C13.6094 32.178 16.8699 33.4749 20.418 33.4749L20.6008 33.4734C26.6436 33.4734 31.5162 29.3467 32.4497 23.436L32.5186 23.0018H26.6676L26.6166 23.3201Z" fill="black"/>
<path d="M20 39.9999C8.97213 39.9999 0 31.2139 0 20.4151C0 9.6178 8.97213 0.833252 20 0.833252C31.0294 0.833252 40 9.6178 40 20.4151C40.0015 31.2139 31.0294 39.9999 20 39.9999ZM20 4.60351C11.0953 4.60351 3.85076 11.6966 3.85076 20.4151C3.85076 29.1351 11.0968 36.2282 20.0015 36.2282C28.9062 36.2282 36.1522 29.1337 36.1522 20.4151C36.1507 11.6966 28.9047 4.60351 20 4.60351Z" fill="black"/>
</svg>
