<svg width="7" height="14" viewBox="0 0 7 14" fill="none" xmlns="http://www.w3.org/2000/svg">
<path d="M5.76367 10.502C5.89909 10.502 5.99219 10.5697 6.04297 10.7051C6.09375 10.8236 6.07682 10.9251 5.99219 11.0098L3.45312 13.5234C3.31771 13.6758 3.18229 13.6758 3.04688 13.5234L0.507812 11.0098C0.423177 10.9251 0.40625 10.8236 0.457031 10.7051C0.507812 10.5697 0.600911 10.502 0.736328 10.502H2.53906V3.74805H0.736328C0.600911 3.74805 0.507812 3.6888 0.457031 3.57031C0.40625 3.4349 0.423177 3.32487 0.507812 3.24023L3.04688 0.726562C3.18229 0.574219 3.31771 0.574219 3.45312 0.726562L5.99219 3.24023C6.07682 3.32487 6.09375 3.4349 6.04297 3.57031C5.99219 3.6888 5.89909 3.74805 5.76367 3.74805H3.96094V10.502H5.76367Z" fill="#7553E2"/>
</svg>
