<svg width="18" height="17" viewBox="0 0 18 17" fill="none" xmlns="http://www.w3.org/2000/svg">
<path d="M16.8281 14.6562C17.0156 14.8229 17.0156 15 16.8281 15.1875L16.1406 15.875C15.9531 16.0625 15.776 16.0625 15.6094 15.875L11.8281 12.0938C11.7448 12.0104 11.7031 11.9271 11.7031 11.8438V11.4062C10.474 12.4688 9.05729 13 7.45312 13C5.66146 13 4.13021 12.3646 2.85938 11.0938C1.58854 9.82292 0.953125 8.29167 0.953125 6.5C0.953125 4.70833 1.58854 3.17708 2.85938 1.90625C4.13021 0.635417 5.66146 0 7.45312 0C9.24479 0 10.776 0.635417 12.0469 1.90625C13.3177 3.17708 13.9531 4.70833 13.9531 6.5C13.9531 8.10417 13.4219 9.52083 12.3594 10.75H12.7969C12.901 10.75 12.9844 10.7917 13.0469 10.875L16.8281 14.6562ZM3.92188 10.0312C4.90104 11.0104 6.07812 11.5 7.45312 11.5C8.82812 11.5 10.0052 11.0104 10.9844 10.0312C11.9635 9.05208 12.4531 7.875 12.4531 6.5C12.4531 5.125 11.9635 3.94792 10.9844 2.96875C10.0052 1.98958 8.82812 1.5 7.45312 1.5C6.07812 1.5 4.90104 1.98958 3.92188 2.96875C2.94271 3.94792 2.45312 5.125 2.45312 6.5C2.45312 7.875 2.94271 9.05208 3.92188 10.0312Z" fill="#7553E2"/>
</svg>
